<?xml version="1.0" encoding="UTF-8"?>
<svg version="1.1" xmlns="http://www.w3.org/2000/svg" width="616" height="501">
<path d="M0 0 C203.28 0 406.56 0 616 0 C616 165.33 616 330.66 616 501 C412.72 501 209.44 501 0 501 C0 335.67 0 170.34 0 0 Z " fill="#FCFDFD" transform="translate(0,0)"/>
<path d="M0 0 C1.77890625 0.40025391 1.77890625 0.40025391 3.59375 0.80859375 C22.55767242 5.70180768 39.88456015 14.66689821 55.4375 26.4375 C56.00001465 26.86272949 56.5625293 27.28795898 57.14208984 27.72607422 C58.46983785 28.7661505 59.74140019 29.87723558 61 31 C61 31.66 61 32.32 61 33 C57.08642343 34.13593603 53.16863695 35.2566574 49.25 36.375 C48.15816406 36.69210938 47.06632813 37.00921875 45.94140625 37.3359375 C42.63865773 38.27399625 39.32679621 39.15139298 36 40 C34.97213379 40.27569824 33.94426758 40.55139648 32.88525391 40.83544922 C24.83738127 42.64918269 20.08446171 41.08619441 12.875 37.375 C-11.5260859 25.9708269 -40.0683625 23.70078758 -66 32 C-67.70349609 32.54333984 -67.70349609 32.54333984 -69.44140625 33.09765625 C-96.33937141 42.64627204 -121.10052701 62.20105402 -134 88 C-132.63875 87.505 -132.63875 87.505 -131.25 87 C-128 86 -128 86 -124 86 C-123.505 84.515 -123.505 84.515 -123 83 C-121.75863281 82.87044922 -121.75863281 82.87044922 -120.4921875 82.73828125 C-112.26656095 81.77003795 -104.263683 80.28259821 -96.1875 78.4375 C-95.21474121 78.21553955 -94.24198242 77.9935791 -93.23974609 77.76489258 C-88.49370859 76.74540455 -88.49370859 76.74540455 -84 75 C-83.30011077 73.34700959 -82.63843229 71.67768484 -82 70 C-73.66679265 54.20936825 -61.45964475 40.5375739 -44 35 C-41.69 35 -39.38 35 -37 35 C-37 44.9 -37 54.8 -37 65 C-32.71 63.68 -28.42 62.36 -24 61 C-21.73752906 60.40844591 -19.46810128 59.84148928 -17.1875 59.32421875 C-16.02524902 59.05730225 -14.86299805 58.79038574 -13.66552734 58.51538086 C-12.45590332 58.24218018 -11.2462793 57.96897949 -10 57.6875 C-7.34580992 57.08048811 -4.69242435 56.46999576 -2.0390625 55.859375 C-1.36920319 55.70564926 -0.69934387 55.55192352 -0.00918579 55.39353943 C6.8848394 53.80681274 13.75387622 52.12026231 20.625 50.4375 C31.28456617 47.83823907 41.97566608 45.45518522 52.71606445 43.21435547 C58.52719114 41.99308991 64.30606751 40.70128656 70.06640625 39.2578125 C71.20110352 38.97429932 72.33580078 38.69078613 73.50488281 38.39868164 C75.64649174 37.85727253 77.7854103 37.30505931 79.92089844 36.73999023 C85.38306593 35.35887358 89.48474428 34.70003038 95 36 C95 37.32 95 38.64 95 40 C93.68 40.33 92.36 40.66 91 41 C91 41.66 91 42.32 91 43 C74.61779432 47.16566226 58.1953315 51.05773179 41.69775391 54.73632812 C15.078003 60.67913445 -11.46368462 66.94651258 -37.95703125 73.4296875 C-38.75254898 73.62434097 -39.54806671 73.81899445 -40.36769104 74.01954651 C-45.06253424 75.16858097 -45.06253424 75.16858097 -49.75723267 76.31820679 C-60.65821568 78.98521104 -71.58141282 81.5091362 -82.54907227 83.89013672 C-91.21940485 85.78507946 -99.821307 87.91237082 -108.40356445 90.17260742 C-109.32999756 90.41213135 -110.25643066 90.65165527 -111.2109375 90.8984375 C-112.42209229 91.21820557 -112.42209229 91.21820557 -113.65771484 91.54443359 C-116.15777827 92.03068733 -118.45933095 92.07948399 -121 92 C-121 92.66 -121 93.32 -121 94 C-120.34257812 94.21011719 -119.68515625 94.42023438 -119.0078125 94.63671875 C-114.88368184 96.50596758 -111.49738797 99.11753774 -107.875 101.8125 C-101.18371099 106.71195036 -94.45031733 111.53866635 -87.625 116.25 C-86.82304199 116.81050049 -86.02108398 117.37100098 -85.19482422 117.94848633 C-84.44217285 118.46564209 -83.68952148 118.98279785 -82.9140625 119.515625 C-82.2535791 119.97227539 -81.5930957 120.42892578 -80.91259766 120.89941406 C-78.08229963 122.52808186 -75.97226743 123.189052 -72.75 122.5625 C-72.1725 122.376875 -71.595 122.19125 -71 122 C-71.63550781 122.47050781 -72.27101563 122.94101563 -72.92578125 123.42578125 C-75.92498448 127.14795626 -75.87702419 130.51955236 -76.1875 135.1875 C-76.26081543 136.09137451 -76.33413086 136.99524902 -76.40966797 137.92651367 C-77.27328381 149.26411628 -77.65210138 160.63672604 -78 172 C-77.45472656 170.82566406 -76.90945312 169.65132812 -76.34765625 168.44140625 C-71.21035221 157.4489768 -65.77838062 146.66883041 -60 136 C-54.46099111 139.02194277 -49.40010444 142.46200435 -44.3125 146.1875 C-43.52955566 146.75686279 -42.74661133 147.32622559 -41.93994141 147.9128418 C-35.58071516 152.54763156 -29.26852839 157.24329316 -23 162 C-23.375 163.9375 -23.375 163.9375 -24 166 C-24.66 166.33 -25.32 166.66 -26 167 C-27.17715703 169.31809384 -28.28405276 171.64184375 -29.375 174 C-36.34927836 188.45687651 -46.28690533 201.12313165 -57 213 C-57.763125 213.84691406 -58.52625 214.69382812 -59.3125 215.56640625 C-79.10008659 236.39016714 -110.89255272 256.19501852 -140.390625 257.203125 C-154.38753851 257.42945929 -164.18089624 256.32915355 -174.6875 246.40625 C-182.46014486 238.16724645 -183.55992242 229.38246761 -183.39794922 218.45727539 C-183.040363 207.96710261 -180.62800128 200.02085291 -175.75 190.8125 C-172.47964604 184.57080829 -171.09402035 180.942451 -173 174 C-173.39762227 171.87576086 -173.75466192 169.74634826 -174.11206055 167.61499023 C-174.48480756 165.40266987 -174.87887535 163.19538353 -175.28125 160.98828125 C-175.46530396 159.95610474 -175.46530396 159.95610474 -175.65307617 158.90307617 C-175.94360068 157.30938261 -176.25975729 155.72039027 -176.58203125 154.1328125 C-181.18454472 119.63546857 -170.30233743 82.97242594 -149.63671875 55.34765625 C-145.43257678 49.90912668 -140.76536928 44.94493392 -136 40 C-134.85144531 38.73929688 -134.85144531 38.73929688 -133.6796875 37.453125 C-118.36461218 21.151655 -95.60015856 7.69302589 -74 2 C-72.74219727 1.66379639 -72.74219727 1.66379639 -71.45898438 1.32080078 C-48.16351633 -4.6564321 -23.50782223 -5.37940454 0 0 Z " fill="#2F3687" transform="translate(322,44)"/>
<path d="M0 0 C5.06998019 0.65419099 9.41990777 2.8546409 14 5 C12.68002302 7.78828763 11.20470507 10.24324231 9.3828125 12.73046875 C8.60538696 13.7980542 8.60538696 13.7980542 7.81225586 14.88720703 C6.97706421 16.02585205 6.97706421 16.02585205 6.125 17.1875 C1.67427524 23.29633791 -2.72820687 29.43304986 -7.0625 35.625 C-10.94524841 41.15947953 -14.92047591 46.60903456 -19 52 C-25.1996963 60.19530236 -31.11246829 68.57883648 -37 77 C-38.49921974 79.14439178 -39.99933545 81.28811609 -41.50292969 83.42944336 C-42.49625772 84.84475761 -43.4865264 86.26222427 -44.47363281 87.68188477 C-47.01163896 91.30335987 -49.62271103 94.81365437 -52.421875 98.23828125 C-59.1944819 105.84657057 -59.1944819 105.84657057 -61.5625 115.3125 C-61.45421875 116.16585937 -61.3459375 117.01921875 -61.234375 117.8984375 C-60.90901508 122.20403373 -61.60528703 126.19339694 -62.3125 130.4375 C-62.44930176 131.26491699 -62.58610352 132.09233398 -62.72705078 132.94482422 C-64.5645603 143.67817935 -67.53881383 153.61644149 -71 164 C-87.83 164 -104.66 164 -122 164 C-122 151.68055556 -122 151.68055556 -119 146.5625 C-116.41874025 142.11937697 -116.41874025 142.11937697 -116 137 C-117.92022703 135.22590192 -117.92022703 135.22590192 -120 134 C-119.67 133.01 -119.34 132.02 -119 131 C-118.34 130.67 -117.68 130.34 -117 130 C-117.38283662 127.64542967 -117.66908628 126.32170889 -119.40429688 124.63476562 C-120.00306641 124.22935547 -120.60183594 123.82394531 -121.21875 123.40625 C-121.89623291 122.93864258 -122.57371582 122.47103516 -123.27172852 121.98925781 C-124.00705811 121.49780273 -124.7423877 121.00634766 -125.5 120.5 C-127.04059477 119.44304377 -128.58095204 118.38574129 -130.12109375 117.328125 C-130.92015137 116.78478516 -131.71920898 116.24144531 -132.54248047 115.68164062 C-136.58192794 112.91751245 -140.56978944 110.08100894 -144.5625 107.25 C-146.00106021 106.23403243 -147.43983985 105.21837544 -148.87890625 104.203125 C-150.42384766 103.11257812 -150.42384766 103.11257812 -152 102 C-155.28526923 105.846676 -157.15260056 110.32142952 -159.25 114.875 C-160.04434301 116.57739733 -160.8399291 118.27921517 -161.63671875 119.98046875 C-162.03165527 120.82399902 -162.4265918 121.6675293 -162.83349609 122.53662109 C-165.45556609 128.07380952 -168.22819371 133.53660045 -171 139 C-171.33 139 -171.66 139 -172 139 C-171.76259701 133.14622252 -171.51404581 127.2930617 -171.25537109 121.44018555 C-171.16900679 119.45105702 -171.08563443 117.46179616 -171.00537109 115.47241211 C-170.88914974 112.60490118 -170.76200371 109.73804612 -170.6328125 106.87109375 C-170.59938751 105.98852402 -170.56596252 105.10595428 -170.53152466 104.19664001 C-169.95019516 91.95019516 -169.95019516 91.95019516 -166 88 C-166.67933594 88.26683594 -167.35867187 88.53367187 -168.05859375 88.80859375 C-172.4329869 89.09324882 -174.80795295 86.66806118 -178.0625 84.0625 C-179.40462946 83.03174065 -180.74839802 82.00311223 -182.09375 80.9765625 C-182.75632813 80.46641602 -183.41890625 79.95626953 -184.1015625 79.43066406 C-186.68297741 77.48530766 -189.35688393 75.70487824 -192.0625 73.9375 C-197.29604561 70.50543336 -202.38874487 66.90528136 -207.45727539 63.23608398 C-210.61604159 60.93732259 -210.61604159 60.93732259 -214 59 C-214 58.34 -214 57.68 -214 57 C-199.52663204 53.45533558 -185.04671615 49.98217272 -170.5 46.75 C-157.87519114 43.93481829 -145.30957989 40.90489109 -132.75 37.8125 C-116.16459624 33.73175377 -99.56316649 29.72620276 -82.9375 25.8125 C-81.86459717 25.5598941 -80.79169434 25.30728821 -79.6862793 25.04702759 C-64.32574574 21.43595428 -48.94641896 17.91912821 -33.52319336 14.58520508 C-25.67509338 12.87886916 -17.93800549 10.95232706 -10.21582031 8.75195312 C-7.32599282 8.07622668 -4.9477811 7.84171124 -2 8 C-2 7.34 -2 6.68 -2 6 C-0.68 5.34 0.64 4.68 2 4 C2 3.34 2 2.68 2 2 C1.01 1.01 1.01 1.01 0 0 Z " fill="#1B82C3" transform="translate(415,79)"/>
<path d="M0 0 C4.55545378 3.64029566 6.03852942 8.32365097 8 13.625 C8.34812744 14.55199707 8.69625488 15.47899414 9.05493164 16.43408203 C12.22276534 25.13134684 14.37914307 33.8975605 16 43 C16.19335938 44.06476563 16.38671875 45.12953125 16.5859375 46.2265625 C18.18861864 60.83212837 17.92278174 76.58502409 15 91 C14.84934082 91.7434668 14.69868164 92.48693359 14.54345703 93.25292969 C6.62838936 131.04148525 -14.77753105 163.87645191 -46.98828125 185.38671875 C-48.32424636 186.25976586 -49.66137707 187.13103356 -51 188 C-52.00417969 188.66644531 -53.00835937 189.33289063 -54.04296875 190.01953125 C-82.9076247 208.05485224 -122.97519386 214.39170617 -156.12109375 206.9765625 C-157.40113281 206.65429688 -158.68117188 206.33203125 -160 206 C-160.70656738 205.82307617 -161.41313477 205.64615234 -162.14111328 205.46386719 C-169.81047542 203.49858253 -176.81919944 201.21550313 -183.875 197.5625 C-190.17405977 194.46434262 -194.44517907 194.9098985 -201 197 C-212.75259945 200.37871721 -229.02733928 199.42285216 -240 194 C-241.02292072 193.02345855 -242.02723119 192.02650906 -243 191 C-242.36610352 190.95512451 -241.73220703 190.91024902 -241.07910156 190.86401367 C-224.29834363 189.81797544 -224.29834363 189.81797544 -208 186 C-206.79988281 185.61199219 -205.59976563 185.22398437 -204.36328125 184.82421875 C-178.46741112 176.02502592 -152.42755855 157.87363382 -137.1875 134.875 C-136.465625 133.92625 -135.74375 132.9775 -135 132 C-133.68 132 -132.36 132 -131 132 C-131 145.2 -131 158.4 -131 172 C-138.04500521 171.21722164 -141.17369395 170.85090931 -147.0625 167.9375 C-148.18785156 167.38964844 -149.31320312 166.84179688 -150.47265625 166.27734375 C-151.30667969 165.85582031 -152.14070313 165.43429687 -153 165 C-155.97 167.64 -158.94 170.28 -162 173 C-158.63397628 175.24401581 -156.13531563 175.75948319 -152.1875 176.5625 C-150.98480469 176.81128906 -149.78210938 177.06007813 -148.54296875 177.31640625 C-147.37378906 177.54199219 -146.20460938 177.76757812 -145 178 C-144.07316406 178.19207031 -143.14632812 178.38414062 -142.19140625 178.58203125 C-137.7038107 179.16975796 -133.27076088 179.14429201 -128.75 179.125 C-127.85925781 179.12886719 -126.96851563 179.13273438 -126.05078125 179.13671875 C-96.29711844 179.09353491 -67.93995723 167.0218286 -46.75 146.25 C-23.56976966 122.66674648 -13.52192557 92.77609289 -13.56738281 60.046875 C-13.72669615 51.61040168 -14.80537617 43.799625 -17.02734375 35.671875 C-19.58356531 26.02188198 -19.58356531 26.02188198 -17.2265625 21.89453125 C-16.37879116 20.85110751 -15.51033658 19.82424526 -14.625 18.8125 C-13.70210298 17.69094437 -12.78025298 16.56852649 -11.859375 15.4453125 C-11.1487793 14.59694824 -11.1487793 14.59694824 -10.42382812 13.73144531 C-8.14229828 10.95699235 -6.01186392 8.07387393 -3.875 5.1875 C-3.12992188 4.19105469 -2.38484375 3.19460937 -1.6171875 2.16796875 C-1.08351563 1.45253906 -0.54984375 0.73710938 0 0 Z " fill="#1C8DCD" transform="translate(416,119)"/>
<path d="M0 0 C0.66 0.33 1.32 0.66 2 1 C-8.86571158 9.3027919 -21.07995512 16.21049406 -34.21875 20.11328125 C-37.05301738 21.01690301 -39.61883421 22.17968192 -42.3125 23.4375 C-51.73750283 27.45735029 -61.98873633 29.04955064 -72 31 C-72.8235498 31.16274414 -73.64709961 31.32548828 -74.49560547 31.49316406 C-102.22618631 36.91400381 -130.95524852 36.20382345 -159.12036133 36.24023438 C-161.96815138 36.24456964 -164.81562999 36.25831661 -167.66333008 36.28125 C-208.98377256 36.60517207 -250.03227439 32.62935738 -291.12554932 28.68023682 C-295.45798698 28.26528861 -299.79096052 27.85609628 -304.12395954 27.44705772 C-309.34974907 26.95360208 -314.57529633 26.45760727 -319.80078125 25.9609375 C-320.77428339 25.86849133 -321.74778553 25.77604515 -322.75078773 25.68079758 C-325.49846116 25.41926586 -328.24596187 25.15599525 -330.9934082 24.89208984 C-332.19072571 24.77831749 -332.19072571 24.77831749 -333.41223145 24.6622467 C-337.06171694 24.30991538 -340.70147436 23.92364542 -344.33885193 23.46182251 C-347.97406147 23.00327192 -351.57739352 22.7192036 -355.234375 22.5 C-355.91131409 22.45939453 -356.58825317 22.41878906 -357.28570557 22.37695312 C-358.72099179 22.29165368 -360.15635793 22.20768955 -361.59179688 22.125 C-363.6760631 22.00428232 -365.75988941 21.87750199 -367.84375 21.75 C-392.21109375 20.29640736 -416.59194329 19.75487642 -441 19.75 C-441.68369156 19.74970543 -442.36738312 19.74941086 -443.0717926 19.74910736 C-477.46113151 19.74672879 -510.21316117 22.64125385 -544 29 C-546.16504098 29.39630319 -548.33036808 29.7910495 -550.49609375 30.18359375 C-551.81178345 30.42227173 -551.81178345 30.42227173 -553.15405273 30.66577148 C-553.76321533 30.77606689 -554.37237793 30.8863623 -555 31 C-552.93713334 26.87426667 -546.42875037 25.81757184 -542.3125 24.25 C-541.13727783 23.80188965 -539.96205566 23.3537793 -538.7512207 22.89208984 C-521.24154971 16.3447181 -503.41715011 12.06603692 -485 9 C-483.75863281 8.78947998 -483.75863281 8.78947998 -482.4921875 8.57470703 C-457.37884848 4.39735107 -432.03635945 3.64133461 -406.625 3.75 C-404.66494019 3.75465271 -404.66494019 3.75465271 -402.6652832 3.75939941 C-381.91313586 3.81170882 -361.26654904 4.30152087 -340.57012939 5.81317139 C-337.78518242 6.01561558 -334.99981274 6.21144538 -332.21435547 6.40673828 C-305.21206131 8.31239069 -278.25443475 10.63046801 -251.31225586 13.24926758 C-231.7498596 15.15054367 -212.18392757 16.8975727 -192.5625 18.0625 C-191.28697266 18.14048828 -190.01144531 18.21847656 -188.69726562 18.29882812 C-186.09349361 18.45738696 -183.48948118 18.61204242 -180.88525391 18.76293945 C-178.3967464 18.91477688 -175.90918252 19.08361693 -173.42333984 19.27416992 C-159.31400675 20.28612093 -145.17597526 20.18729735 -131.03808594 20.18530273 C-128.02695672 20.18522179 -125.01598066 20.19212746 -122.00488281 20.20581055 C-98.48491762 20.3108497 -75.11942485 19.81405092 -51.875 15.8125 C-50.62783203 15.60036865 -49.38066406 15.3882373 -48.09570312 15.16967773 C-32.26524772 12.33139923 -17.0006327 7.8495151 -2.44921875 0.96875 C-1.23685547 0.48921875 -1.23685547 0.48921875 0 0 Z " fill="#27569A" transform="translate(563,429)"/>
<path d="M0 0 C0.66 0 1.32 0 2 0 C0.73424249 2.64398662 -0.63675287 5.04867577 -2.328125 7.44140625 C-2.79081787 8.0974585 -3.25351074 8.75351074 -3.73022461 9.42944336 C-4.23175049 10.13335205 -4.73327637 10.83726074 -5.25 11.5625 C-5.77795166 12.30701416 -6.30590332 13.05152832 -6.84985352 13.81860352 C-11.40089562 20.21162318 -16.04723612 26.53262811 -20.71582031 32.84008789 C-24.68176164 38.19998255 -28.60593647 43.58769055 -32.5 49 C-36.97609233 55.22126387 -41.50250142 61.40250192 -46.0625 67.5625 C-50.44905059 73.49157388 -54.76758564 79.45994787 -59 85.5 C-63.79811142 92.34735487 -68.7207409 99.09402705 -73.69677734 105.81298828 C-78.43235731 112.2116041 -83.10227109 118.65544063 -87.73803711 125.12670898 C-90.40052405 128.83280526 -93.10571569 132.46869617 -96 136 C-99.40974729 134.75153755 -102.1522549 133.3501845 -105.046875 131.1640625 C-106.1774231 130.31884033 -106.1774231 130.31884033 -107.33081055 129.45654297 C-108.12914307 128.85213379 -108.92747559 128.24772461 -109.75 127.625 C-111.4585428 126.34749575 -113.16820011 125.07148086 -114.87890625 123.796875 C-115.73758301 123.15685547 -116.59625977 122.51683594 -117.48095703 121.85742188 C-121.17357494 119.13466193 -124.92582495 116.5010999 -128.6875 113.875 C-136.93463265 108.10443993 -144.98332845 102.08533345 -153 96 C-150.49501605 93.21674329 -147.69795805 91.47044338 -144.49609375 89.55078125 C-142.81628418 88.53830322 -142.81628418 88.53830322 -141.10253906 87.50537109 C-140.50606567 87.14852234 -139.90959229 86.79167358 -139.29504395 86.42401123 C-136.76333079 84.90909278 -134.23759573 83.38433593 -131.71151733 81.86004639 C-130.40468587 81.0715417 -129.09757422 80.28350123 -127.79019165 79.49591064 C-105.7920189 66.23884458 -84.01361679 52.61175685 -62.3125 38.875 C-53.10079139 33.04508932 -43.84043321 27.2954504 -34.55908203 21.57714844 C-32.87183446 20.53730687 -31.18529386 19.49631719 -29.49951172 18.45410156 C-13.34073362 8.46597907 -13.34073362 8.46597907 -5.06640625 4.21875 C-3.02344804 3.01382947 -1.66196722 1.66681261 0 0 Z " fill="#FCFDFD" transform="translate(417,85)"/>
<path d="M0 0 C2.49361571 1.20381448 4.68143083 2.45428722 7 4 C6.31734912 8.0959053 5.03689235 11.7487044 3.5625 15.625 C-0.13222862 25.84672761 -1.08600545 35.03206538 -2 46 C8.89 46 19.78 46 31 46 C31 42.04 31 38.08 31 34 C31.26036616 31.74039371 31.57440278 29.4843854 32 27.25 C32.185625 26.24453125 32.37125 25.2390625 32.5625 24.203125 C32.706875 23.47609375 32.85125 22.7490625 33 22 C38.875 25.875 38.875 25.875 40 27 C40.0165911 28.41844613 39.9633054 29.83787607 39.87890625 31.25390625 C39.83056641 32.10791016 39.78222656 32.96191406 39.73242188 33.84179688 C39.67634766 34.73962891 39.62027344 35.63746094 39.5625 36.5625 C39.51029297 37.46419922 39.45808594 38.36589844 39.40429688 39.29492188 C39.2741999 41.53022453 39.13769204 43.76515234 39 46 C43.95 46 48.9 46 54 46 C53.67 48.64 53.34 51.28 53 54 C48.38 54 43.76 54 39 54 C39.50764153 57.92971237 40.02010823 61.8583735 40.54418945 65.78588867 C40.80618163 67.76477586 41.06041397 69.74468551 41.31445312 71.72460938 C42.93612695 83.81066904 46.11620791 94.34862374 50 106 C66.335 106.495 66.335 106.495 83 107 C83 109 83 109 80.5625 111.5625 C79.716875 112.366875 78.87125 113.17125 78 114 C77.67 114.33 77.34 114.66 77 115 C75.29227642 115.08713831 73.58101351 115.10700007 71.87109375 115.09765625 C70.31938477 115.09282227 70.31938477 115.09282227 68.73632812 115.08789062 C67.64771484 115.07951172 66.55910156 115.07113281 65.4375 115.0625 C63.7987793 115.05573242 63.7987793 115.05573242 62.12695312 115.04882812 C59.41791505 115.03699826 56.70898401 115.02051543 54 115 C54.5053125 115.84304687 55.010625 116.68609375 55.53125 117.5546875 C56.50578125 119.19824219 56.50578125 119.19824219 57.5 120.875 C58.47453125 122.51082031 58.47453125 122.51082031 59.46875 124.1796875 C61 127 61 127 61 129 C58.6875 130.6875 58.6875 130.6875 56 132 C51.82912589 130.60970863 50.81791302 127.72156282 48.8125 124.0625 C48.44447266 123.41603516 48.07644531 122.76957031 47.69726562 122.10351562 C45 117.28446776 45 117.28446776 45 115 C37.74 115.33 30.48 115.66 23 116 C28.83049469 122.7039082 28.83049469 122.7039082 35.125 128.6875 C38.53821879 131.69487875 41.83712457 134.73169539 45 138 C40.75373371 141.03304735 40.75373371 141.03304735 37.68359375 140.8984375 C34.14568657 139.71398532 31.88274871 137.60191008 29.25 135.0625 C28.72559326 134.56596924 28.20118652 134.06943848 27.66088867 133.55786133 C11.9055358 118.46988437 0.8179542 100.75029539 -6 80 C-6.66 80 -7.32 80 -8 80 C-19.00818591 95.00656148 -26.76610199 112.13977503 -25 131 C-23.27463522 137.5004284 -20.03375696 142.33964124 -14.359375 146.08203125 C-8.34426106 149.45605525 -1.70290259 150.65124521 5 152 C-0.65619065 155.36422714 -7.5197983 154.66590452 -13.796875 153.46484375 C-21.90033902 151.21797418 -28.40326644 147.15905843 -33 140 C-35.66449537 134.47591186 -36.52277225 129.47063376 -36.4375 123.375 C-36.42847656 122.59012207 -36.41945312 121.80524414 -36.41015625 120.99658203 C-35.84036975 101.52491971 -24.20301506 79.63947016 -11.3605957 65.15039062 C-9.55054305 62.2896435 -9.70098065 60.41207464 -9.8125 57.046875 C-9.83812012 55.87809814 -9.86374023 54.70932129 -9.89013672 53.50512695 C-9.9263916 52.26593506 -9.96264648 51.02674316 -10 49.75 C-10.23242885 32.32779758 -7.89104752 15.78209504 0 0 Z " fill="#F5F5F9" transform="translate(185,136)"/>
<path d="M0 0 C-3.32342233 2.70490793 -6.91987735 4.58027979 -10.75 6.44921875 C-11.4411792 6.79055344 -12.1323584 7.13188812 -12.84448242 7.48356628 C-14.38743613 8.24477789 -15.93135484 9.0040356 -17.47607422 9.76165771 C-20.13335112 11.06542757 -22.78757988 12.37525695 -25.44140625 13.68603516 C-31.62326629 16.73704165 -37.81072836 19.77656066 -44 22.8125 C-45.11438446 23.359133 -46.22876892 23.90576599 -47.37692261 24.46896362 C-67.73448914 34.44834071 -88.17014174 44.2518892 -108.68237305 53.90887451 C-111.02223612 55.01046864 -113.36174384 56.11281435 -115.70117188 57.21533203 C-117.2538944 57.94696526 -118.80662867 58.67857355 -120.359375 59.41015625 C-121.1143074 59.76584686 -121.86923981 60.12153748 -122.64704895 60.48800659 C-126.27896551 62.19856824 -129.91196888 63.90673699 -133.54760742 65.609375 C-139.44927697 68.37463417 -145.34239246 71.15161889 -151.19140625 74.02734375 C-152.08625732 74.4641748 -152.9811084 74.90100586 -153.90307617 75.35107422 C-155.48247591 76.12509708 -157.057387 76.90839273 -158.6262207 77.70361328 C-163.46598835 80.06769633 -163.46598835 80.06769633 -165.94897461 79.75292969 C-168.32848898 78.87941197 -170.10282234 77.73293309 -172.16796875 76.26171875 C-172.97097412 75.69428955 -173.77397949 75.12686035 -174.60131836 74.54223633 C-175.88147827 73.62414185 -175.88147827 73.62414185 -177.1875 72.6875 C-178.06865479 72.06319092 -178.94980957 71.43888184 -179.85766602 70.7956543 C-182.57554757 68.86901458 -185.28792317 66.93479916 -188 65 C-190.40965985 63.28856199 -192.82082715 61.57930046 -195.23364258 59.87231445 C-196.66741354 58.8575407 -198.09962978 57.84056548 -199.5300293 56.82104492 C-202.30302699 54.85312218 -205.02020294 52.98839858 -207.97265625 51.29296875 C-208.64167969 50.86628906 -209.31070313 50.43960938 -210 50 C-210 49.34 -210 48.68 -210 48 C-195.52663204 44.45533558 -181.04671615 40.98217272 -166.5 37.75 C-153.87519114 34.93481829 -141.30957989 31.90489109 -128.75 28.8125 C-112.16459717 24.731754 -95.56318418 20.72612529 -78.9375 16.8125 C-77.86592651 16.56022644 -76.79435303 16.30795288 -75.69030762 16.04803467 C-60.21080056 12.40933316 -44.71164199 8.86881801 -29.17163086 5.49731445 C-22.47616122 4.03871242 -15.84608381 2.49088277 -9.27026367 0.55371094 C-6.08001599 -0.22438152 -3.26507789 -0.21767186 0 0 Z " fill="#FBFBFC" transform="translate(411,88)"/>
<path d="M0 0 C4.95 0 9.9 0 15 0 C17.16282539 12.01103035 19.27104779 23.97878035 20.60546875 36.11328125 C20.83330167 38.93491832 20.83330167 38.93491832 22 41 C22.14695312 40.13503906 22.29390625 39.27007812 22.4453125 38.37890625 C24.74721921 25.45383234 27.86452333 12.74485016 31 0 C35.29 0 39.58 0 44 0 C46.80315241 9.51233687 49.34743245 19.0259917 51.3125 28.75 C51.48362305 29.58241211 51.65474609 30.41482422 51.83105469 31.27246094 C52.674799 35.5823981 53.19232152 39.58372814 53 44 C53.66 44 54.32 44 55 44 C54.97172119 43.30849854 54.94344238 42.61699707 54.91430664 41.90454102 C54.72184004 33.34788488 55.88911496 25.3363158 57.4375 16.9375 C57.67081099 15.62059992 57.90323737 14.3035428 58.13476562 12.98632812 C59.82535226 3.52394322 59.82535226 3.52394322 61 0 C65.29 0 69.58 0 74 0 C73.38044782 10.42753978 71.21234708 20.43004424 69.0625 30.625 C68.69801966 32.37749027 68.33408358 34.13009383 67.97070312 35.8828125 C66.3657544 43.60074443 64.72115348 51.30705947 63 59 C57.39 59 51.78 59 46 59 C42.75762008 47.4200717 40.25406384 35.80985578 38 24 C37.67 24 37.34 24 37 24 C36.79318604 24.98919434 36.58637207 25.97838867 36.37329102 26.99755859 C35.6063845 30.66204671 34.83585038 34.32576407 34.06420898 37.98925781 C33.7305332 39.57596327 33.39784602 41.16287696 33.06616211 42.75 C32.58966707 45.02919898 32.10963994 47.30762929 31.62890625 49.5859375 C31.48095108 50.29744965 31.33299591 51.00896179 31.18055725 51.74203491 C30.11387171 56.77225659 30.11387171 56.77225659 29 59 C23.72 59 18.44 59 13 59 C10.91076291 53.02683449 9.2581995 47.17869055 8.02734375 40.9765625 C7.85876358 40.14973969 7.69018341 39.32291687 7.51649475 38.47103882 C6.98492924 35.85672106 6.46121282 33.24090075 5.9375 30.625 C5.5831704 28.88010914 5.22835626 27.13531661 4.87304688 25.390625 C3.15844978 16.94236481 1.49775915 8.48988864 0 0 Z " fill="#373888" transform="translate(444,356)"/>
<path d="M0 0 C0 1.32 0 2.64 0 4 C-1.56616211 5.38110352 -1.56616211 5.38110352 -3.77734375 6.62890625 C-4.59154785 7.10038086 -5.40575195 7.57185547 -6.24462891 8.05761719 C-7.13327637 8.55422852 -8.02192383 9.05083984 -8.9375 9.5625 C-10.79963023 10.63941831 -12.66028769 11.71888688 -14.51953125 12.80078125 C-15.4523291 13.34041504 -16.38512695 13.88004883 -17.34619141 14.43603516 C-21.0140413 16.59760337 -24.57270817 18.90496519 -28.125 21.25 C-38.55287939 28.08578874 -49.21118797 34.54770054 -59.84179688 41.06152344 C-64.40280921 43.86103163 -68.95180339 46.67973824 -73.5 49.5 C-75.17312385 50.5352423 -76.84630199 51.57039685 -78.51953125 52.60546875 C-82.08051464 54.80906404 -85.63769284 57.01865748 -89.19271851 59.23184204 C-91.59797478 60.72793928 -94.00555577 62.22026765 -96.41357422 63.71191406 C-97.59019114 64.44191531 -98.76582209 65.1735083 -99.94042969 65.90673828 C-101.57623003 66.92759367 -103.21576739 67.94245355 -104.85546875 68.95703125 C-105.80059326 69.54460205 -106.74571777 70.13217285 -107.71948242 70.73754883 C-110 72 -110 72 -112 72 C-112.29656494 72.62342285 -112.59312988 73.2468457 -112.89868164 73.88916016 C-118.49541643 85.64587767 -124.10429298 97.38968277 -130 109 C-130.33 109 -130.66 109 -131 109 C-130.76259701 103.14622252 -130.51404581 97.2930617 -130.25537109 91.44018555 C-130.16900679 89.45105702 -130.08563443 87.46179616 -130.00537109 85.47241211 C-129.88914974 82.60490118 -129.76200371 79.73804612 -129.6328125 76.87109375 C-129.59938751 75.98852402 -129.56596252 75.10595428 -129.53152466 74.19664001 C-128.95144445 61.97651312 -128.95144445 61.97651312 -124.3203125 57.28588867 C-121.07025599 54.8779871 -117.547922 53.09457986 -113.875 51.42578125 C-113.18819656 51.10469391 -112.50139313 50.78360657 -111.79377747 50.45278931 C-109.53288103 49.39786925 -107.26646209 48.35540114 -105 47.3125 C-103.39365466 46.56489183 -101.7877878 45.81625483 -100.18237305 45.06665039 C-96.82032112 43.49759327 -93.45646978 41.93249412 -90.09130859 40.37011719 C-81.97945922 36.59934977 -73.89611502 32.76831661 -65.8125 28.9375 C-65.03001892 28.56708588 -64.24753784 28.19667175 -63.44134521 27.81503296 C-51.80870175 22.30758758 -40.20460692 16.74309178 -28.625 11.125 C-27.93395172 10.78975311 -27.24290344 10.45450623 -26.53091431 10.10910034 C-24.57486476 9.15955744 -22.61936856 8.20888531 -20.6640625 7.2578125 C-19.49713867 6.690625 -18.33021484 6.1234375 -17.12792969 5.5390625 C-14.50225589 4.24712934 -11.90182787 2.91812038 -9.3046875 1.5703125 C-5.87032154 -0.06162026 -3.75031795 -0.3750318 0 0 Z " fill="#2264AD" transform="translate(374,109)"/>
<path d="M0 0 C4.62 0 9.24 0 14 0 C17.29874672 3.56763065 18.85893689 5.77851979 20.875 10 C21.36484375 10.91523438 21.8546875 11.83046875 22.359375 12.7734375 C23.96860327 15.81679667 25.48165271 18.91029578 27 22 C29.64 27.28 32.28 32.56 35 38 C35 25.46 35 12.92 35 0 C39.29 0 43.58 0 48 0 C48 19.47 48 38.94 48 59 C43.38 59 38.76 59 34 59 C30.84917393 55.76211604 29.53423439 53.96747027 27.6875 50.0625 C27.21022461 49.16692383 26.73294922 48.27134766 26.24121094 47.34863281 C25.26342929 45.50069725 24.3091059 43.64016223 23.37841797 41.76806641 C21.68552978 38.36849746 19.88009482 35.03715223 18.06469727 31.7019043 C16.34078425 28.48681452 14.67602357 25.24031223 13 22 C13 34.21 13 46.42 13 59 C8.71 59 4.42 59 0 59 C0 39.53 0 20.06 0 0 Z " fill="#343689" transform="translate(339,356)"/>
<path d="M0 0 C5.61 0 11.22 0 17 0 C19.48214085 7.24803195 21.96041369 14.49736412 24.43187714 21.74904346 C25.57960637 25.11616244 26.72902822 28.48268365 27.88232422 31.84790039 C29.20784666 35.71590055 30.52599267 39.58637871 31.84375 43.45703125 C32.46715271 45.27120293 32.46715271 45.27120293 33.10314941 47.12202454 C33.4835437 48.24296005 33.86393799 49.36389557 34.25585938 50.51879883 C34.59339233 51.50697098 34.93092529 52.49514313 35.27868652 53.51325989 C36 56 36 56 36 59 C31.05 59 26.1 59 21 59 C18 48.375 18 48.375 18 45 C11.73 45.33 5.46 45.66 -1 46 C-2.32 50.29 -3.64 54.58 -5 59 C-9.62 59 -14.24 59 -19 59 C-17.5843266 52.03725305 -15.61040391 45.41978089 -13.33984375 38.69140625 C-12.9899086 37.64347397 -12.63997345 36.59554169 -12.2794342 35.51585388 C-11.54444138 33.31756005 -10.80730166 31.11998297 -10.06811523 28.9230957 C-8.93326229 25.54990401 -7.80494431 22.17458067 -6.67773438 18.79882812 C-5.9613136 16.65872823 -5.24452969 14.51874985 -4.52734375 12.37890625 C-4.18879868 11.3675209 -3.8502536 10.35613556 -3.50144958 9.31410217 C-3.18764847 8.38230637 -2.87384735 7.45051056 -2.55053711 6.49047852 C-2.27455185 5.66935074 -1.99856659 4.84822296 -1.71421814 4.00221252 C-1 2 -1 2 0 0 Z " fill="#1D91D2" transform="translate(82,356)"/>
<path d="M0 0 C12.87 0 25.74 0 39 0 C39 3.63 39 7.26 39 11 C30.75 11 22.5 11 14 11 C14 14.96 14 18.92 14 23 C20.93 23 27.86 23 35 23 C35 26.63 35 30.26 35 34 C28.07 34 21.14 34 14 34 C14 38.62 14 43.24 14 48 C22.58 48 31.16 48 40 48 C40 51.63 40 55.26 40 59 C26.8 59 13.6 59 0 59 C0 39.53 0 20.06 0 0 Z " fill="#188FD1" transform="translate(169,356)"/>
<path d="M0 0 C10.89 0 21.78 0 33 0 C33 6.28747637 32.84165534 11.20624966 31.375 17.125 C31.1982373 17.85219238 31.02147461 18.57938477 30.83935547 19.32861328 C28.08012511 30.14714457 23.98932544 45.01067456 16 53 C14.07332493 53.08748207 12.14348139 53.10697334 10.21484375 53.09765625 C8.46010742 53.09282227 8.46010742 53.09282227 6.66992188 53.08789062 C4.82237305 53.07532227 4.82237305 53.07532227 2.9375 53.0625 C1.08415039 53.05573242 1.08415039 53.05573242 -0.80664062 53.04882812 C-3.87114117 53.03699608 -6.93554721 53.02051173 -10 53 C-9.8131665 52.32050293 -9.62633301 51.64100586 -9.43383789 50.94091797 C-4.75909579 33.87936318 -1.3237461 17.69006155 0 0 Z " fill="#1988C7" transform="translate(362,190)"/>
<path d="M0 0 C10.89 0 21.78 0 33 0 C33.226875 2.866875 33.45375 5.73375 33.6875 8.6875 C34.92189113 22.1535851 37.86825777 35.35178098 42.43383789 48.08325195 C43 50 43 50 43 53 C19.82624309 54.93922652 19.82624309 54.93922652 13.92578125 50.890625 C12.04017197 47.63805888 11.01373188 44.61936972 10 41 C9.49837023 39.73882548 8.97823067 38.48488189 8.44140625 37.23828125 C5.52837173 30.34126913 3.39289872 23.26981141 1.625 16 C1.45718018 15.31848877 1.28936035 14.63697754 1.11645508 13.93481445 C0.00270873 9.01762134 0 5.24533457 0 0 Z " fill="#303486" transform="translate(183,190)"/>
<path d="M0 0 C5.58837216 3.01121024 5.58837216 3.01121024 6.9140625 6.98828125 C5.91796875 8.8125 5.91796875 8.8125 4.4765625 10.67578125 C4.00347656 11.29839844 3.53039062 11.92101562 3.04296875 12.5625 C2.67042969 13.03300781 2.29789063 13.50351562 1.9140625 13.98828125 C-0.85885531 13.49894281 -3.36886445 12.88594597 -6.0234375 11.92578125 C-9.26859703 10.93236507 -11.71331213 10.68849233 -15.0859375 10.98828125 C-16.0759375 11.64828125 -17.0659375 12.30828125 -18.0859375 12.98828125 C-18.33624727 15.57208302 -18.33624727 15.57208302 -18.0859375 17.98828125 C-16.56178384 18.75035808 -15.03758646 19.51234757 -13.51318359 20.27392578 C-12.22366466 20.91917531 -10.93493148 21.56599745 -9.64697266 22.21435547 C-6.95097196 23.56952422 -4.25831623 24.90916517 -1.515625 26.16796875 C3.50644392 28.47850236 6.43922456 31.03860537 8.9140625 35.98828125 C9.69121584 42.58298249 9.41784949 47.84764395 5.484375 53.33203125 C2.928041 56.02826413 0.26928882 57.40562733 -3.0859375 58.98828125 C-4.0759375 59.48328125 -4.0759375 59.48328125 -5.0859375 59.98828125 C-16.78704825 60.68445718 -25.33173522 60.0600779 -35.0859375 52.98828125 C-33.7162211 48.99327507 -31.82871328 46.18818633 -29.0859375 42.98828125 C-24.36284197 44.82504062 -24.36284197 44.82504062 -22.296875 46.04296875 C-19.42395306 47.27132054 -17.07606134 47.25358898 -13.9609375 47.23828125 C-12.90648437 47.2434375 -11.85203125 47.24859375 -10.765625 47.25390625 C-7.93418395 47.25913293 -7.93418395 47.25913293 -6.0859375 44.98828125 C-5.68840733 42.5097403 -5.68840733 42.5097403 -7.0859375 39.98828125 C-9.95464416 38.16208903 -13.07157436 36.96294923 -16.2109375 35.67578125 C-29.93823027 29.58831253 -29.93823027 29.58831253 -33.0859375 22.98828125 C-34.77813583 17.76453857 -34.4747861 12.88531288 -32.30859375 7.84765625 C-25.59275644 -2.36556599 -10.81233411 -3.54480321 0 0 Z " fill="#1A8FD2" transform="translate(250.0859375,356.01171875)"/>
<path d="M0 0 C2.35281965 1.4367074 4.5316827 2.90621372 6.65625 4.66015625 C5.83332746 8.64483381 3.99571269 11.33962857 1.65625 14.66015625 C-1.23846594 13.7176906 -4.06571526 12.78527188 -6.84375 11.53515625 C-9.85381532 10.48163339 -12.17441412 10.38456183 -15.34375 10.66015625 C-16.33375 11.32015625 -17.32375 11.98015625 -18.34375 12.66015625 C-18.59405977 15.24395802 -18.59405977 15.24395802 -18.34375 17.66015625 C-16.81972653 18.42216798 -15.2956375 19.18404883 -13.77124023 19.9453125 C-12.48051569 20.59141046 -11.19097111 21.23987075 -9.90258789 21.890625 C-7.22371041 23.24073858 -4.55752035 24.56661113 -1.80859375 25.76953125 C3.21888833 27.9781361 6.56525479 30.55851515 8.65625 35.66015625 C9.63718452 41.61178778 9.07825118 46.5861545 5.65625 51.66015625 C2.27640656 55.69719147 -1.15441163 58.54630492 -6.34375 59.66015625 C-17.84805557 60.59640408 -25.99183316 59.44029596 -35.34375 52.66015625 C-34.00886872 49.06624511 -32.38352277 45.90524929 -30.34375 42.66015625 C-27.75856437 43.15730733 -26.10602186 43.80873633 -23.84375 45.22265625 C-18.79418168 47.2965861 -13.74497938 47.28275305 -8.34375 46.66015625 C-6.08923386 44.85003445 -6.08923386 44.85003445 -6.2109375 42.28125 C-8.00215306 38.13674778 -11.43865896 37.3569323 -15.46875 35.72265625 C-22.65602336 32.75480803 -28.24078853 29.3636909 -33.28125 23.34765625 C-35.14213005 18.64072436 -35.3789081 14.17284771 -33.4296875 9.44140625 C-26.78373509 -2.04965985 -11.91541077 -4.77451623 0 0 Z " fill="#36398A" transform="translate(557.34375,356.33984375)"/>
<path d="M0 0 C12.54 0 25.08 0 38 0 C38 3.63 38 7.26 38 11 C30.08 11 22.16 11 14 11 C14 14.96 14 18.92 14 23 C20.6 23 27.2 23 34 23 C34 26.63 34 30.26 34 34 C27.4 34 20.8 34 14 34 C14 38.62 14 43.24 14 48 C22.25 48 30.5 48 39 48 C39 51.63 39 55.26 39 59 C26.13 59 13.26 59 0 59 C0 39.53 0 20.06 0 0 Z " fill="#323588" transform="translate(400,356)"/>
<path d="M0 0 C15.18 0 30.36 0 46 0 C40.88445839 15.34662482 29.16951166 28.35128351 15 36 C10.11786334 38.0284934 5.33091734 40 0 40 C0 26.8 0 13.6 0 0 Z " fill="#1B8FCD" transform="translate(293,251)"/>
<path d="M0 0 C15.51 0 31.02 0 47 0 C47 3.63 47 7.26 47 11 C41.39 11 35.78 11 30 11 C30 26.84 30 42.68 30 59 C25.71 59 21.42 59 17 59 C17 43.16 17 27.32 17 11 C11.39 11 5.78 11 0 11 C0 7.37 0 3.74 0 0 Z " fill="#168BCE" transform="translate(262,356)"/>
<path d="M0 0 C15.51 0 31.02 0 47 0 C47 3.63 47 7.26 47 11 C41.39 11 35.78 11 30 11 C30 26.84 30 42.68 30 59 C25.71 59 21.42 59 17 59 C17 43.16 17 27.32 17 11 C11.39 11 5.78 11 0 11 C0 7.37 0 3.74 0 0 Z " fill="#178ED2" transform="translate(115,356)"/>
<path d="M0 0 C4.62 0 9.24 0 14 0 C14 15.51 14 31.02 14 47 C21.92 47 29.84 47 38 47 C38 50.96 38 54.92 38 59 C25.46 59 12.92 59 0 59 C0 39.53 0 20.06 0 0 Z " fill="#1F91D3" transform="translate(23,356)"/>
<path d="M0 0 C7.59 0 15.18 0 23 0 C14.89554512 16.20890976 -5.50249552 27.94727319 -22 34 C-22.66 33.67 -23.32 33.34 -24 33 C-22.71034824 31.62437146 -21.37310707 30.29233607 -20 29 C-19.34 29 -18.68 29 -18 29 C-17.61714844 28.14341797 -17.61714844 28.14341797 -17.2265625 27.26953125 C-15.86544237 24.75102552 -14.24981974 22.84989169 -12.375 20.6875 C-7.14493516 14.29839148 -3.73673849 7.34002204 0 0 Z " fill="#1E90D1" transform="translate(348,251)"/>
<path d="M0 0 C0.66 0.33 1.32 0.66 2 1 C1.38253906 1.55945313 0.76507813 2.11890625 0.12890625 2.6953125 C-6.00774929 8.50505337 -10.4849795 14.34332504 -14.89453125 21.5078125 C-15.24249756 22.06307617 -15.59046387 22.61833984 -15.94897461 23.19042969 C-17.05913656 25.02710616 -17.05913656 25.02710616 -17.97485352 27.19238281 C-19.12483825 29.54175249 -20.08945428 31.20442665 -22 33 C-25.81152203 33.98173847 -29.40923941 33.75971792 -33.3125 33.5 C-34.33923828 33.46390625 -35.36597656 33.4278125 -36.42382812 33.390625 C-38.95304545 33.29651459 -41.4745974 33.16524592 -44 33 C-36.74726924 17.54781891 -17.64165994 8.19239436 -3 1 C-2.01 0.67 -1.02 0.34 0 0 Z " fill="#333688" transform="translate(251,85)"/>
<path d="M0 0 C0.66 0 1.32 0 2 0 C5.20363725 9.65120906 6 17.70563562 6 28 C-3.24 28 -12.48 28 -22 28 C-17.50624688 21.25937031 -17.50624688 21.25937031 -15.1953125 18.6328125 C-14.69692871 18.06062988 -14.19854492 17.48844727 -13.68505859 16.89892578 C-13.17023926 16.31353027 -12.65541992 15.72813477 -12.125 15.125 C-8.72223979 11.2209541 -5.40794314 7.3290796 -2.375 3.125 C-1.59125 2.09375 -0.8075 1.0625 0 0 Z " fill="#1B81C2" transform="translate(389,154)"/>
<path d="M0 0 C11.61053406 1.29005934 19.59259601 4.97475074 28 13 C22.62953641 18.37046359 11.35178609 20.50241394 4 22 C2.68 22 1.36 22 0 22 C0 14.74 0 7.48 0 0 Z " fill="#2F3384" transform="translate(293,79)"/>
<path d="M0 0 C5.97842675 3.24914497 11.47131676 7.03981643 17 11 C13.68719955 13.75923422 10.38048105 16.05768965 6.62109375 18.1640625 C5.61755859 18.72867188 4.61402344 19.29328125 3.58007812 19.875 C2.54302734 20.4525 1.50597656 21.03 0.4375 21.625 C-0.60341797 22.21023437 -1.64433594 22.79546875 -2.71679688 23.3984375 C-10.96834542 28.02567244 -10.96834542 28.02567244 -15 30 C-13.58501785 26.32765496 -11.97296011 22.81718891 -10.21484375 19.296875 C-9.68439453 18.2346875 -9.15394531 17.1725 -8.60742188 16.078125 C-7.78081055 14.43070313 -7.78081055 14.43070313 -6.9375 12.75 C-6.38255859 11.63625 -5.82761719 10.5225 -5.25585938 9.375 C-4.72669922 8.31796875 -4.19753906 7.2609375 -3.65234375 6.171875 C-3.16757568 5.2034668 -2.68280762 4.23505859 -2.18334961 3.23730469 C-1 1 -1 1 0 0 Z " fill="#F7F7F8" transform="translate(264,191)"/>
<path d="M0 0 C1.93467863 2.90201794 2.30101841 4.0812834 2.8125 7.375 C3.82584048 11.99883508 4.95444828 14.24902483 9 17 C12.95220373 18.27274357 16.9276177 19.20111161 21 20 C21 20.33 21 20.66 21 21 C20.10796875 21.17015625 19.2159375 21.3403125 18.296875 21.515625 C17.12640625 21.75796875 15.9559375 22.0003125 14.75 22.25 C13.58984375 22.48203125 12.4296875 22.7140625 11.234375 22.953125 C7.63989631 24.1165553 6.21523185 24.96431191 4 28 C2.88023521 31.2472854 2.88023521 31.2472854 2.25 34.75 C1.88648438 36.50570312 1.88648438 36.50570312 1.515625 38.296875 C1.34546875 39.18890625 1.1753125 40.0809375 1 41 C0.67 41 0.34 41 0 41 C-0.02578125 40.43152344 -0.0515625 39.86304688 -0.078125 39.27734375 C-0.50410406 33.47821968 -1.38786886 29.63093736 -5 25 C-8.99983958 22.72394066 -13.47705926 21.70670949 -18 21 C-15.82492851 18.82492851 -15.0285112 18.61357218 -12.125 18 C-9.14062212 17.36454311 -6.57559338 16.67713058 -4 15 C-2.90821712 13.04424758 -2.90821712 13.04424758 -2.3125 10.75 C-2.0753125 9.95207031 -1.838125 9.15414062 -1.59375 8.33203125 C-0.89095906 5.57172737 -0.36221651 2.82528879 0 0 Z " fill="#288CCA" transform="translate(440,54)"/>
<path d="M0 0 C0.66 0.33 1.32 0.66 2 1 C-3.92126318 5.52460159 -10.12555069 9.30932215 -16.6875 12.8125 C-17.39962646 13.19720459 -18.11175293 13.58190918 -18.84545898 13.97827148 C-23.16527078 16.24470634 -27.26313095 17.82664712 -32 19 C-32 18.01 -32 17.02 -32 16 C-31.34 16 -30.68 16 -30 16 C-30.33 15.34 -30.66 14.68 -31 14 C-31.9075 14.309375 -32.815 14.61875 -33.75 14.9375 C-40.62790698 17.18604651 -40.62790698 17.18604651 -43 16 C-43 15.34 -43 14.68 -43 14 C-41.58074219 13.67128906 -41.58074219 13.67128906 -40.1328125 13.3359375 C-27.67744821 10.37788809 -15.14406241 6.96399925 -3.5 1.5625 C-1.7675 0.7890625 -1.7675 0.7890625 0 0 Z " fill="#309ADC" transform="translate(563,429)"/>
<path d="M0 0 C0.66 0 1.32 0 2 0 C2.84003448 2.7481128 3.67222151 5.49819581 4.5 8.25 C4.73847656 9.02730469 4.97695312 9.80460937 5.22265625 10.60546875 C5.56103516 11.73662109 5.56103516 11.73662109 5.90625 12.890625 C6.11572266 13.58188477 6.32519531 14.27314453 6.54101562 14.98535156 C7 17 7 17 7 21 C3.04 21 -0.92 21 -5 21 C-4.54625 19.39125 -4.0925 17.7825 -3.625 16.125 C-2.16489866 10.78974818 -1.00267473 5.4380359 0 0 Z " fill="#EEF7FA" transform="translate(89,369)"/>
<path d="M0 0 C-1.17895488 3.53686464 -1.70005991 3.66853636 -4.875 5.3125 C-5.68783447 5.74320801 -6.50066895 6.17391602 -7.33813477 6.61767578 C-8.21655029 7.07384277 -9.09496582 7.53000977 -10 8 C-17.82940265 12.16786637 -25.33391232 16.62656485 -32.70507812 21.55859375 C-35.45422981 23.39136154 -37.84859518 24.94953173 -41 26 C-41 25.01 -41 24.02 -41 23 C-42.32 22.67 -43.64 22.34 -45 22 C-43.81410278 21.45641846 -43.81410278 21.45641846 -42.60424805 20.90185547 C-39.61517222 19.52946991 -36.62776808 18.15356078 -33.64135742 16.77539062 C-32.35911259 16.18449734 -31.07625382 15.5949341 -29.79272461 15.00683594 C-21.69369953 11.2946508 -13.75723794 7.39520031 -6 3 C-6.495 2.01 -6.495 2.01 -7 1 C-2.25 0 -2.25 0 0 0 Z " fill="#2E88C4" transform="translate(415,86)"/>
<path d="M0 0 C0.33 1.65 0.66 3.3 1 5 C-0.4562545 5.67119549 -1.91507867 6.33681807 -3.375 7 C-4.18710937 7.37125 -4.99921875 7.7425 -5.8359375 8.125 C-8 9 -8 9 -10 9 C-10 8.01 -10 7.02 -10 6 C-9.34 6 -8.68 6 -8 6 C-8.33 5.34 -8.66 4.68 -9 4 C-9.9075 4.309375 -10.815 4.61875 -11.75 4.9375 C-18.62790698 7.18604651 -18.62790698 7.18604651 -21 6 C-21 5.34 -21 4.68 -21 4 C-18.43923903 3.32595716 -15.87673417 2.660586 -13.3125 2 C-12.59126953 1.80921875 -11.87003906 1.6184375 -11.12695312 1.421875 C-7.33149039 0.45134572 -3.95384561 -0.24955239 0 0 Z " fill="#2592D3" transform="translate(541,439)"/>
<path d="M0 0 C-0.99 0.495 -0.99 0.495 -2 1 C-1.67 1.66 -1.34 2.32 -1 3 C-3.60183588 3.69761537 -6.20583602 4.38337774 -8.8125 5.0625 C-9.55048828 5.26166016 -10.28847656 5.46082031 -11.04882812 5.66601562 C-16.66015625 7.11328125 -16.66015625 7.11328125 -20 6 C-17.8967433 5.01888025 -15.79236311 4.04016866 -13.6875 3.0625 C-12.51574219 2.51722656 -11.34398437 1.97195313 -10.13671875 1.41015625 C-4.14121835 -1.2852057 -4.14121835 -1.2852057 0 0 Z " fill="#494C92" transform="translate(28,453)"/>
<path d="M0 0 C0.99 0.33 1.98 0.66 3 1 C-1.62 5.62 -6.24 10.24 -11 15 C-11.33 14.01 -11.66 13.02 -12 12 C-8.04 8.04 -4.08 4.08 0 0 Z " fill="#292F82" transform="translate(192,78)"/>
<path d="M0 0 C-1.2313462 3.69403861 -2.12532019 3.90976237 -5.47265625 5.69921875 C-6.37177734 6.18583984 -7.27089844 6.67246094 -8.19726562 7.17382812 C-9.61555664 7.9230957 -9.61555664 7.9230957 -11.0625 8.6875 C-12.01189453 9.19861328 -12.96128906 9.70972656 -13.93945312 10.23632812 C-16.28856594 11.49941894 -18.64205426 12.75349911 -21 14 C-21 13.01 -21 12.02 -21 11 C-16.05 8.36 -11.1 5.72 -6 3 C-6.33 2.34 -6.66 1.68 -7 1 C-2.25 0 -2.25 0 0 0 Z " fill="#5FA8D8" transform="translate(415,86)"/>
<path d="M0 0 C0.66 0.33 1.32 0.66 2 1 C1.34 1.66 0.68 2.32 0 3 C0.66 3.33 1.32 3.66 2 4 C2 4.66 2 5.32 2 6 C0.54618103 6.69699552 -0.91322953 7.38233866 -2.375 8.0625 C-3.18710937 8.44535156 -3.99921875 8.82820313 -4.8359375 9.22265625 C-5.55007813 9.47917969 -6.26421875 9.73570312 -7 10 C-7.66 9.67 -8.32 9.34 -9 9 C-7.71034824 7.62437146 -6.37310707 6.29233607 -5 5 C-4.34 5 -3.68 5 -3 5 C-2.690625 4.360625 -2.38125 3.72125 -2.0625 3.0625 C-1 1 -1 1 0 0 Z " fill="#3099D3" transform="translate(333,275)"/>
<path d="M0 0 C0.66 0.33 1.32 0.66 2 1 C-1.3 3.31 -4.6 5.62 -8 8 C-9.32 7.01 -10.64 6.02 -12 5 C-10.04578965 4.13644222 -8.08648653 3.28440066 -6.125 2.4375 C-5.03445313 1.96183594 -3.94390625 1.48617188 -2.8203125 0.99609375 C-1.88960937 0.66738281 -0.95890625 0.33867187 0 0 Z " fill="#41A6E2" transform="translate(563,429)"/>
<path d="M0 0 C-4.59060079 3.06040053 -8.42083266 4.15039689 -13.9375 3.625 C-14.948125 3.41875 -15.95875 3.2125 -17 3 C-17 2.67 -17 2.34 -17 2 C-14.91952703 1.4678559 -12.83547707 0.94968214 -10.75 0.4375 C-9.58984375 0.14746094 -8.4296875 -0.14257812 -7.234375 -0.44140625 C-4.27909017 -0.95179964 -2.75565899 -1.02996165 0 0 Z " fill="#317EBA" transform="translate(414,80)"/>
<path d="M0 0 C1.00289063 0.10183594 2.00578125 0.20367187 3.0390625 0.30859375 C3.80992187 0.39238281 4.58078125 0.47617188 5.375 0.5625 C5.375 0.8925 5.375 1.2225 5.375 1.5625 C0.755 2.2225 -3.865 2.8825 -8.625 3.5625 C-8.295 2.5725 -7.965 1.5825 -7.625 0.5625 C-4.89657939 -0.80171031 -3.01546682 -0.31557211 0 0 Z " fill="#2794D3" transform="translate(455.625,73.4375)"/>
<path d="M0 0 C0 0.66 0 1.32 0 2 C-1.43554025 2.50559908 -2.8735202 3.0042749 -4.3125 3.5 C-5.51326172 3.91765625 -5.51326172 3.91765625 -6.73828125 4.34375 C-9 5 -9 5 -12 5 C-11.67 4.01 -11.34 3.02 -11 2 C-9.2578125 1.26953125 -9.2578125 1.26953125 -7.125 0.8125 C-6.42632813 0.65394531 -5.72765625 0.49539063 -5.0078125 0.33203125 C-3 0 -3 0 0 0 Z " fill="#2E94D0" transform="translate(519,451)"/>
<path d="M0 0 C-5.28 1.32 -10.56 2.64 -16 4 C-16.33 3.01 -16.66 2.02 -17 1 C-14.73052303 0.63724344 -12.45935265 0.28506814 -10.1875 -0.0625 C-8.92292969 -0.25972656 -7.65835937 -0.45695312 -6.35546875 -0.66015625 C-3 -1 -3 -1 0 0 Z " fill="#389CD0" transform="translate(519,445)"/>
<path d="M0 0 C4.75 0.75 4.75 0.75 7 3 C6.34 3.66 5.68 4.32 5 5 C4.67 5.66 4.34 6.32 4 7 C2.02 7 0.04 7 -2 7 C-1.34 6.54625 -0.68 6.0925 0 5.625 C0.66 5.08875 1.32 4.5525 2 4 C2 3.34 2 2.68 2 2 C1.34 1.34 0.68 0.68 0 0 Z " fill="#2D83C0" transform="translate(415,79)"/>
<path d="M0 0 C3.82097239 0.53069061 6.06171403 1.49701566 9 4 C7.35 4.33 5.7 4.66 4 5 C2.68 3.35 1.36 1.7 0 0 Z " fill="#535795" transform="translate(325,85)"/>
<path d="M0 0 C-0.66 0 -1.32 0 -2 0 C-2 1.32 -2 2.64 -2 4 C-2.99 4.33 -3.98 4.66 -5 5 C-5 4.01 -5 3.02 -5 2 C-6.32 1.67 -7.64 1.34 -9 1 C-5.57367167 -0.61798838 -3.61944899 -1.34053666 0 0 Z " fill="#287FC0" transform="translate(379,107)"/>
<path d="M0 0 C0.66 0.33 1.32 0.66 2 1 C0.35 2.98 -1.3 4.96 -3 7 C-3.99 6.67 -4.98 6.34 -6 6 C-4.02 4.02 -2.04 2.04 0 0 Z " fill="#414B93" transform="translate(257,91)"/>
<path d="M0 0 C0 0.99 0 1.98 0 3 C-1.65 3.66 -3.3 4.32 -5 5 C-5.33 4.01 -5.66 3.02 -6 2 C-2.25 0 -2.25 0 0 0 Z " fill="#4298CB" transform="translate(393,98)"/>
</svg>
