<?xml version="1.0" standalone="no"?>
<!DOCTYPE svg PUBLIC "-//W3C//DTD SVG 20010904//EN"
 "http://www.w3.org/TR/2001/REC-SVG-20010904/DTD/svg10.dtd">
<svg version="1.0" xmlns="http://www.w3.org/2000/svg"
 width="302.000000pt" height="279.000000pt" viewBox="0 0 302.000000 279.000000"
 preserveAspectRatio="xMidYMid meet">

<g transform="translate(0.000000,279.000000) scale(0.100000,-0.100000)"
fill="#000000" stroke="none">
<path d="M1176 2664 c-254 -46 -485 -170 -676 -363 -191 -193 -301 -396 -357
-661 -27 -133 -25 -383 6 -522 l23 -106 -40 -81 c-78 -156 -93 -323 -37 -437
30 -62 69 -97 145 -133 50 -24 66 -26 175 -25 103 0 132 4 205 28 108 35 268
118 372 193 159 113 332 309 434 490 46 82 46 82 70 66 31 -20 30 -31 -6 -103
-20 -40 -30 -74 -30 -105 l0 -45 219 0 219 0 11 30 c7 21 7 40 1 58 -9 24 -8
25 3 10 12 -16 16 -9 35 60 29 105 44 207 40 267 -3 50 -2 51 128 230 71 99
210 293 309 430 98 138 193 271 211 296 l33 46 -57 25 -58 25 -84 -18 c-125
-26 -805 -183 -950 -218 -68 -17 -130 -31 -137 -31 -10 0 -13 32 -13 135 0
134 0 135 -23 135 -38 0 -159 -64 -214 -114 -47 -43 -173 -214 -173 -236 0 -5
8 -10 18 -12 17 -4 -238 -61 -328 -75 -25 -3 -48 -10 -51 -16 -6 -8 -91 -29
-97 -23 -1 2 20 37 47 78 239 367 688 549 1107 448 97 -23 174 -52 235 -90
l46 -28 158 44 c87 24 160 46 162 48 8 8 -168 133 -245 174 -97 51 -259 106
-376 127 -111 19 -351 19 -460 -1z m1405 -392 c-5 -10 -94 -135 -197 -277
-103 -143 -289 -402 -413 -575 -282 -393 -264 -369 -275 -370 -4 0 -85 57
-180 127 -94 69 -206 151 -248 182 -42 31 -77 58 -77 61 0 3 156 102 347 221
504 315 874 548 881 555 3 4 -7 0 -24 -9 -50 -25 -1152 -555 -1266 -609 l-106
-49 -138 96 c-76 53 -167 118 -202 145 -59 45 -63 50 -41 55 12 3 91 21 173
40 83 18 292 68 465 110 173 41 412 98 530 126 483 114 755 180 759 185 12 11
21 2 12 -14z m-2062 -471 l23 -18 -25 -70 c-28 -77 -57 -215 -57 -269 l0 -34
145 0 c109 0 145 3 145 13 0 27 21 191 25 195 2 2 18 -4 35 -15 l32 -18 -7
-87 -7 -88 67 0 66 0 -3 -37 -3 -38 -64 -3 -63 -3 6 -72 c10 -97 32 -205 65
-307 l27 -85 147 -3 c81 -1 147 -5 147 -8 0 -3 -12 -21 -26 -40 l-26 -34 -99
0 c-55 0 -99 -4 -99 -8 0 -5 13 -29 30 -53 16 -24 30 -46 30 -49 0 -3 -14 -14
-31 -24 -36 -21 -29 -26 -85 72 l-35 62 -102 0 -101 0 44 -47 c61 -63 107
-105 141 -126 16 -11 29 -22 29 -26 0 -4 -16 -15 -35 -24 l-35 -17 -79 70
c-44 38 -106 105 -139 149 -66 87 -146 238 -163 307 -6 24 -15 44 -19 44 -10
0 -73 -96 -108 -166 -85 -170 -88 -318 -9 -402 33 -35 111 -72 181 -85 55 -10
58 -12 31 -18 -82 -19 -202 2 -266 47 -20 14 -49 48 -64 76 -80 147 -16 389
168 635 l39 53 -7 77 c-11 129 21 323 74 446 11 26 24 47 28 47 4 0 19 -9 32
-19z m759 -530 c34 -24 62 -47 62 -50 -1 -6 -283 -170 -287 -167 -1 1 30 63
68 139 46 87 75 135 83 130 6 -3 39 -27 74 -52z"/>
<path d="M466 1273 c14 -116 70 -280 128 -371 l26 -42 115 0 114 0 -18 53
c-25 73 -59 221 -66 292 -3 33 -8 75 -11 93 l-5 32 -145 0 -145 0 7 -57z"/>
<path d="M2771 2512 c-2 -70 -52 -121 -123 -123 -30 -1 -28 -2 20 -17 57 -18
102 -59 102 -93 0 -10 5 -19 10 -19 6 0 10 9 10 19 0 32 48 80 86 87 48 9 50
20 6 28 -49 7 -81 42 -98 103 -12 44 -13 45 -13 15z"/>
<path d="M1450 2240 c0 -107 2 -111 52 -90 13 5 63 21 111 36 l89 26 -28 29
c-36 38 -157 99 -195 99 l-29 0 0 -100z"/>
<path d="M978 2237 c-103 -56 -186 -117 -249 -184 -28 -30 -50 -56 -48 -57 2
-2 47 -6 100 -9 l96 -6 19 42 c29 63 89 153 141 208 25 27 39 49 32 49 -8 0
-49 -19 -91 -43z"/>
<path d="M1765 2260 c18 -20 55 -28 55 -11 0 5 -14 14 -31 20 -43 15 -45 14
-24 -9z"/>
<path d="M2513 1902 c-28 -37 -67 -88 -88 -114 l-38 -48 21 -84 c36 -140 46
-263 33 -383 -35 -306 -179 -551 -436 -741 -74 -54 -77 -57 -42 -41 17 8 31 9
35 3 4 -5 21 -9 38 -9 21 1 30 -3 27 -11 -3 -8 3 -11 14 -10 10 2 24 -1 31 -7
9 -7 11 -6 6 7 -3 9 -1 16 5 16 6 0 11 -4 11 -10 0 -5 9 -10 19 -10 11 0 22
-6 25 -12 4 -7 5 -4 3 7 -6 30 26 29 40 -2 12 -24 8 -53 -6 -53 -4 0 -13 -11
-19 -25 -6 -14 -8 -25 -3 -25 5 0 54 44 108 98 55 53 83 83 64 65 -30 -26 -42
-31 -75 -27 -39 3 -76 24 -44 24 11 0 15 6 11 20 -7 27 -21 34 -38 20 -19 -16
-19 -8 -1 35 8 19 11 35 5 35 -5 0 -9 5 -9 11 0 6 6 9 13 6 16 -5 67 30 67 48
0 7 9 15 20 18 11 3 20 1 20 -5 0 -5 9 -6 20 -3 11 4 20 3 19 -2 -4 -22 3 -31
19 -26 27 7 45 -69 23 -93 -15 -17 -15 -17 2 -4 49 36 162 229 215 366 57 145
89 393 72 557 -16 153 -68 349 -121 450 l-15 27 -51 -68z m10 -1041 c-2 -6 2
-11 8 -11 5 0 7 -4 4 -10 -4 -6 1 -7 12 -3 16 6 16 5 4 -10 -17 -22 -27 -21
-34 1 -2 9 -8 25 -12 36 -6 14 -5 17 6 14 8 -3 13 -11 12 -17z m42 13 c13 -5
14 -8 3 -15 -19 -12 -25 -11 -25 6 0 17 0 17 22 9z m-75 -44 c0 -5 -5 -10 -11
-10 -5 0 -7 5 -4 10 3 6 8 10 11 10 2 0 4 -4 4 -10z m-223 -166 c-3 -3 -12 -4
-19 -1 -8 3 -5 6 6 6 11 1 17 -2 13 -5z m-32 -14 c3 -6 -1 -7 -9 -4 -18 7 -21
14 -7 14 6 0 13 -4 16 -10z m20 -180 c-3 -5 -14 -10 -23 -10 -15 0 -15 2 -2
10 20 13 33 13 25 0z"/>
<path d="M2298 1626 c-10 -13 -54 -67 -98 -120 l-80 -96 120 0 120 0 0 33 c0
43 -30 207 -39 207 -3 0 -14 -11 -23 -24z"/>
<path d="M2076 1308 c-3 -13 -6 -39 -6 -59 0 -54 -37 -247 -60 -313 -11 -33
-20 -63 -20 -68 0 -4 50 -8 110 -8 l110 0 30 46 c54 85 104 241 116 361 l7 63
-140 0 c-137 0 -141 -1 -147 -22z"/>
<path d="M1320 734 c-57 -74 -233 -239 -312 -292 -190 -128 -372 -192 -552
-194 -88 -1 -90 -2 -57 -15 111 -46 262 -54 386 -21 48 13 53 12 125 -19 98
-42 228 -79 324 -92 165 -23 396 -7 531 38 l60 19 -51 -5 c-32 -3 -54 -1 -58
6 -4 6 -14 11 -22 11 -17 0 -55 36 -46 44 3 3 0 6 -5 6 -11 0 -11 6 2 48 5 16
13 22 26 19 10 -3 18 -2 17 2 -3 24 4 32 20 26 28 -11 46 -13 57 -5 16 12 65
18 65 8 0 -5 5 -6 11 -2 22 13 64 9 77 -8 7 -10 19 -18 25 -17 9 0 9 2 0 6
-10 4 -10 9 1 25 12 17 13 24 2 42 -8 11 -13 33 -12 49 1 15 -2 27 -7 27 -5 0
-7 8 -4 19 4 16 -4 15 -67 -14 -39 -18 -97 -41 -128 -51 -31 -9 -55 -20 -54
-23 2 -3 -8 -6 -22 -7 -15 0 -65 -6 -112 -12 -46 -7 -116 -13 -155 -13 -38 -1
-62 -3 -52 -6 9 -2 15 -9 12 -14 -7 -11 -62 -11 -90 0 -18 8 -16 10 15 20 l35
11 -32 -3 c-18 -2 -33 0 -33 5 0 4 -9 8 -21 8 -13 0 -18 -4 -14 -12 4 -7 0 -5
-8 5 -8 10 -29 19 -46 20 -17 1 -31 5 -31 8 0 4 -8 9 -18 11 -10 3 -19 12 -19
21 0 9 3 14 7 12 3 -2 26 13 50 34 l44 38 40 -23 c23 -12 65 -29 94 -38 l52
-15 0 180 c0 98 -3 179 -7 179 -5 -1 -24 -21 -43 -46z m440 -390 c0 -3 -7 -12
-15 -20 -16 -17 -18 -14 -9 10 6 15 24 23 24 10z m-504 -46 c4 -7 3 -8 -4 -4
-7 4 -12 2 -12 -5 0 -7 -3 -10 -6 -6 -6 5 3 27 11 27 2 0 7 -5 11 -12z m-46
-33 c-7 -8 -17 -12 -22 -9 -6 4 -5 10 3 15 22 14 33 10 19 -6z m240 -75 c0 -5
-5 -10 -11 -10 -5 0 -7 5 -4 10 3 6 8 10 11 10 2 0 4 -4 4 -10z m71 -64 c5 3
9 -2 9 -10 0 -17 -12 -19 -48 -10 l-23 7 23 11 c13 7 25 8 26 4 2 -4 8 -6 13
-2z m-71 -6 c0 -5 -4 -10 -10 -10 -5 0 -10 5 -10 10 0 6 5 10 10 10 6 0 10 -4
10 -10z"/>
<path d="M1460 605 l0 -177 33 6 c84 17 223 116 278 200 l21 31 -29 -33 c-26
-30 -30 -32 -42 -18 -7 9 -11 25 -8 37 4 15 0 23 -14 26 -15 4 -17 8 -8 19 17
20 37 17 44 -7 5 -15 9 -18 15 -9 5 9 9 9 14 1 14 -22 35 -10 66 40 17 28 29
53 26 56 -8 8 -166 -8 -161 -17 3 -4 -2 -14 -11 -21 -13 -10 -17 -10 -24 2 -7
10 -4 16 8 21 9 4 -10 7 -43 7 -33 1 -84 4 -112 7 l-53 7 0 -178z m17 -47 c-3
-8 -6 -5 -6 6 -1 11 2 17 5 13 3 -3 4 -12 1 -19z"/>
<path d="M1910 699 c-24 -45 -71 -110 -103 -145 -32 -35 -56 -64 -52 -64 17 0
155 76 210 115 33 24 89 73 125 109 l64 66 -99 0 -100 0 -45 -81z"/>
<path d="M1995 460 c3 -5 8 -10 11 -10 2 0 4 5 4 10 0 6 -5 10 -11 10 -5 0 -7
-4 -4 -10z"/>
<path d="M2150 329 c0 -5 5 -7 10 -4 6 3 10 8 10 11 0 2 -4 4 -10 4 -5 0 -10
-5 -10 -11z"/>
<path d="M2114 304 c-18 -14 -18 -15 4 -4 12 6 22 13 22 15 0 8 -5 6 -26 -11z"/>
<path d="M2065 280 c-4 -6 -15 -8 -25 -5 -10 3 -22 0 -27 -7 -10 -17 -52 -40
-61 -34 -4 2 -15 -7 -25 -20 -10 -13 -15 -24 -12 -24 10 0 139 68 160 84 11 8
15 16 8 16 -6 0 -15 -5 -18 -10z"/>
</g>
</svg>
