<?xml version="1.0" standalone="no"?>
<!DOCTYPE svg PUBLIC "-//W3C//DTD SVG 20010904//EN"
 "http://www.w3.org/TR/2001/REC-SVG-20010904/DTD/svg10.dtd">
<svg version="1.0" xmlns="http://www.w3.org/2000/svg"
 width="1302.000000pt" height="281.000000pt" viewBox="0 0 1302.000000 281.000000"
 preserveAspectRatio="xMidYMid meet">

<g transform="translate(0.000000,281.000000) scale(0.100000,-0.100000)"
fill="#000000" stroke="none">
<path d="M12300 2617 c-36 -12 -76 -30 -90 -40 -13 -9 -29 -17 -36 -17 -21 0
-100 -89 -127 -144 -57 -116 -60 -228 -8 -338 43 -91 110 -155 213 -205 110
-54 154 -73 166 -73 26 0 151 -74 185 -108 32 -33 38 -45 39 -85 1 -95 -71
-134 -228 -125 -83 5 -147 30 -247 98 -25 16 -49 30 -55 30 -6 0 -22 -15 -36
-32 -15 -18 -31 -38 -36 -45 -6 -7 -10 -16 -10 -20 -1 -4 -14 -24 -30 -43 -50
-58 -43 -70 80 -142 107 -63 175 -85 296 -99 267 -30 483 69 562 258 18 41 22
72 22 153 0 123 -21 184 -86 246 -64 61 -232 155 -359 199 -82 29 -170 82
-183 110 -17 36 -15 96 4 123 43 62 167 80 280 42 75 -26 141 -56 149 -70 3
-5 10 -10 14 -10 8 0 71 86 71 98 1 4 14 23 30 42 51 58 44 73 -65 134 -113
64 -166 78 -315 82 -120 3 -142 1 -200 -19z"/>
<path d="M5439 2625 c-3 -2 -34 -12 -70 -20 -138 -35 -230 -102 -284 -208 -27
-54 -29 -68 -29 -165 -1 -98 2 -112 29 -167 16 -33 46 -76 66 -96 35 -34 152
-99 180 -99 8 0 23 -7 33 -15 11 -8 26 -15 34 -15 8 0 25 -9 39 -20 14 -11 36
-20 49 -20 12 0 29 -7 37 -15 8 -7 26 -17 40 -20 15 -4 31 -13 38 -21 6 -8 17
-14 23 -14 6 -1 23 -11 38 -23 81 -67 52 -199 -52 -239 -118 -45 -331 4 -434
101 -12 11 -25 21 -28 21 -3 0 -25 -33 -49 -72 -23 -40 -49 -79 -56 -86 -18
-18 -16 -36 5 -54 28 -26 163 -91 217 -106 127 -34 374 -38 422 -7 12 8 30 15
40 15 66 1 209 122 233 198 7 20 16 41 21 47 5 5 9 49 9 98 0 67 -6 105 -21
149 -35 94 -83 140 -209 197 -14 6 -32 15 -40 19 -50 28 -100 52 -109 52 -6 0
-34 11 -63 24 -29 13 -60 27 -68 30 -45 18 -116 66 -134 89 -25 34 -26 105 -1
138 37 48 83 69 165 76 89 7 142 -6 252 -63 l68 -34 21 42 c12 24 37 63 57 87
27 34 33 47 25 60 -9 15 -68 53 -103 66 -8 4 -28 13 -45 21 -16 7 -46 17 -65
20 -19 3 -54 12 -78 20 -40 13 -193 20 -203 9z"/>
<path d="M7895 2611 l-100 -6 -3 -677 -2 -678 26 -6 c31 -8 237 1 253 10 19
12 12 547 -12 885 -1 19 3 36 8 38 9 3 65 -105 65 -126 0 -5 6 -14 14 -20 8
-7 17 -24 21 -39 4 -15 12 -34 20 -42 7 -8 16 -26 20 -39 4 -13 43 -84 86
-158 44 -74 79 -136 79 -138 0 -2 23 -43 51 -92 28 -48 69 -121 90 -160 71
-134 51 -122 207 -122 84 0 141 4 149 10 10 9 13 137 13 671 0 414 -4 666 -10
678 -9 17 -20 18 -132 13 -68 -3 -127 -10 -133 -14 -6 -6 -8 -168 -6 -438 2
-288 -1 -431 -7 -435 -6 -4 -24 22 -41 59 -17 36 -45 95 -62 132 -18 37 -60
116 -95 176 -35 60 -64 112 -64 114 0 2 -13 24 -30 48 -16 24 -30 47 -30 51 0
4 -22 43 -49 88 -26 45 -63 109 -81 144 -37 71 -53 83 -107 80 -21 -1 -83 -4
-138 -7z"/>
<path d="M9202 2608 c-9 -9 -12 -169 -12 -685 l0 -673 23 -5 c12 -3 211 -4
442 -3 l420 3 3 105 c2 58 0 115 -3 128 l-5 22 -284 0 c-250 0 -285 2 -290 16
-12 30 -7 279 6 292 9 9 75 12 234 12 203 0 223 2 228 18 7 21 7 191 0 215 -5
15 -25 17 -228 17 -159 0 -225 3 -234 12 -8 8 -12 54 -12 139 0 106 3 128 16
133 9 3 134 6 279 6 153 0 266 4 270 9 12 20 13 210 1 226 -10 14 -61 16 -427
21 -318 3 -417 2 -427 -8z"/>
<path d="M10260 2613 c-30 -2 -59 -8 -63 -12 -9 -9 -3 -43 38 -236 15 -66 33
-160 41 -209 8 -49 19 -97 24 -107 5 -9 12 -43 16 -75 3 -33 12 -80 20 -105 8
-25 21 -88 29 -140 8 -52 21 -121 29 -154 14 -60 35 -159 56 -266 9 -45 16
-58 33 -63 29 -8 321 -8 341 0 9 3 16 17 16 31 0 14 9 55 19 91 11 37 29 117
41 177 12 61 29 137 37 170 21 81 40 180 57 299 8 54 20 104 26 110 21 21 42
-20 55 -110 17 -116 42 -245 60 -314 8 -30 31 -140 51 -245 20 -104 41 -196
46 -202 8 -10 56 -13 177 -13 91 0 176 3 187 6 17 5 23 16 28 57 3 29 15 90
25 137 19 85 32 149 56 270 37 189 47 240 60 290 7 30 16 80 20 110 4 30 13
78 20 105 36 136 72 363 62 389 -5 13 -27 16 -131 16 -146 0 -150 -2 -161
-105 -4 -33 -13 -85 -20 -115 -8 -30 -19 -95 -25 -143 -6 -48 -15 -98 -19
-111 -5 -12 -12 -49 -16 -82 -4 -32 -15 -111 -25 -174 -10 -63 -22 -144 -25
-180 -8 -71 -22 -107 -36 -93 -5 5 -15 40 -23 78 -31 155 -49 236 -76 350 -16
66 -36 152 -44 190 -9 39 -23 97 -31 130 -8 33 -22 94 -31 135 -9 41 -23 86
-31 99 -15 24 -16 24 -137 18 -139 -8 -150 -14 -161 -95 -4 -26 -12 -65 -17
-87 -6 -22 -16 -71 -23 -110 -7 -38 -20 -99 -28 -135 -9 -36 -25 -110 -37
-165 -11 -55 -25 -118 -30 -140 -6 -22 -17 -71 -25 -110 -42 -197 -49 -203
-70 -53 -44 306 -57 386 -65 413 -5 17 -16 80 -25 140 -28 211 -51 317 -70
332 -18 13 -91 15 -225 6z"/>
<path d="M554 2589 c-3 -6 -5 -307 -3 -670 l4 -659 428 0 427 0 -1 83 c-1 45
-4 95 -8 110 l-6 28 -277 -3 c-231 -3 -278 -1 -283 10 -3 8 -5 257 -5 554 0
296 -2 543 -5 548 -9 14 -262 13 -271 -1z"/>
<path d="M1934 2590 c-12 -11 -44 -95 -44 -114 0 -11 -6 -33 -14 -48 -8 -15
-20 -52 -26 -83 -6 -30 -15 -55 -20 -55 -4 0 -11 -19 -15 -42 -4 -24 -13 -56
-20 -73 -8 -16 -17 -46 -20 -65 -4 -19 -13 -44 -20 -55 -7 -11 -16 -41 -20
-65 -4 -25 -13 -52 -20 -60 -7 -8 -15 -32 -18 -54 -3 -21 -13 -46 -22 -56 -8
-9 -15 -31 -15 -48 0 -18 -9 -49 -20 -69 -11 -21 -20 -50 -20 -65 0 -14 -7
-34 -16 -43 -9 -8 -18 -35 -21 -58 -3 -23 -11 -56 -19 -74 -8 -17 -14 -39 -14
-50 0 -10 -9 -31 -20 -48 -11 -16 -20 -47 -20 -67 l0 -38 124 0 c141 0 129 -8
146 96 5 32 16 62 24 66 8 4 17 23 21 41 3 17 14 53 23 80 19 55 -13 49 275
49 200 -1 257 -6 238 -25 -14 -14 -14 -50 1 -98 13 -45 25 -50 34 -15 6 24 34
45 34 25 0 -6 5 -7 10 -4 6 3 10 1 10 -4 0 -6 -6 -11 -12 -11 -10 0 -10 -2 0
-9 8 -5 11 -17 7 -32 -5 -21 -3 -25 18 -24 13 0 32 7 43 15 18 14 18 14 4 -4
-22 -28 -52 -35 -82 -20 -26 14 -28 13 -34 -10 -3 -15 1 -38 10 -57 9 -18 16
-38 16 -46 0 -10 29 -13 139 -13 l140 0 -6 38 c-3 20 -12 46 -19 57 -8 11 -14
31 -14 45 0 40 -11 70 -26 70 -8 0 -14 8 -15 18 -2 42 -11 78 -25 93 -8 8 -14
31 -14 50 0 19 -7 43 -15 53 -8 11 -15 34 -15 51 0 17 -6 40 -14 51 -8 11 -18
38 -21 60 -4 21 -12 44 -16 50 -11 14 -48 117 -58 164 -5 19 -16 49 -25 65 -9
17 -16 39 -16 49 0 23 -27 119 -47 164 -8 18 -21 55 -29 82 -8 27 -19 52 -24
55 -6 3 -10 16 -11 28 0 12 -5 37 -12 56 l-12 34 -163 1 c-90 1 -166 -1 -168
-4z m180 -242 c2 -7 9 -29 16 -48 7 -19 16 -63 21 -97 4 -34 15 -73 23 -85 8
-13 18 -45 22 -73 4 -27 13 -59 20 -70 8 -11 14 -33 14 -50 0 -16 5 -47 11
-69 8 -30 8 -41 -3 -52 -16 -16 -229 -29 -273 -16 -26 7 -30 14 -33 47 -2 21
5 63 16 94 36 104 62 196 88 306 14 61 28 113 31 118 7 12 43 8 47 -5z m463
-833 l2 -30 -9 30 -8 30 -1 -37 c-1 -35 -3 -38 -28 -37 -18 1 -21 3 -10 6 12
3 16 12 13 29 -3 13 0 24 5 24 6 0 7 5 3 11 -4 7 1 10 12 7 13 -2 20 -13 21
-33z m-57 1 c0 -8 -7 -16 -15 -20 -12 -4 -13 -2 -2 14 14 24 17 25 17 6z"/>
<path d="M3200 2590 c-283 -3 -514 -8 -512 -12 1 -5 2 -53 2 -108 l0 -100 184
0 c141 0 186 -3 195 -13 7 -10 11 -175 12 -555 l1 -542 134 0 134 0 0 545 c0
528 1 545 19 555 12 6 95 10 199 10 l180 0 -3 104 c-3 100 -8 129 -23 124 -4
-2 -239 -5 -522 -8z"/>
<path d="M4025 2592 l-70 -3 0 -664 c0 -435 3 -666 10 -668 6 -1 205 -1 444 1
l433 4 -8 56 c-4 32 -6 78 -5 105 l2 47 -168 1 c-357 1 -405 4 -419 24 -10 14
-14 59 -14 172 0 140 2 153 19 163 12 6 109 10 245 10 l226 0 0 108 0 107
-227 -3 c-135 -1 -234 2 -243 8 -20 12 -28 273 -10 296 10 12 60 14 292 14
l279 0 -3 110 -3 110 -355 3 c-195 1 -386 1 -425 -1z"/>
<path d="M6588 2593 l-488 -3 0 -43 c0 -23 -3 -72 -7 -109 l-6 -68 197 0 c148
0 198 -3 201 -12 3 -7 6 -256 7 -553 l3 -540 133 0 133 0 -1 541 c0 442 2 543
13 552 9 7 79 13 193 14 l179 3 0 110 0 110 -35 0 c-19 0 -254 -1 -522 -2z"/>
<path d="M2987 810 c-120 -4 -229 -11 -242 -14 -13 -3 -101 -11 -195 -16 -94
-5 -197 -16 -228 -24 -31 -8 -93 -17 -137 -20 -127 -10 -368 -46 -525 -80 -41
-9 -122 -25 -180 -37 -100 -20 -154 -32 -280 -64 -176 -45 -250 -65 -290 -80
-25 -9 -61 -21 -80 -26 -19 -6 -49 -17 -67 -25 -17 -8 -36 -14 -42 -14 -6 0
-30 -9 -53 -19 -24 -11 -61 -26 -83 -34 -85 -31 -161 -60 -190 -73 -16 -7 -47
-20 -68 -28 -81 -33 -12 -45 88 -16 17 5 59 14 95 20 36 6 85 17 110 24 55 17
244 50 405 72 66 8 179 24 250 34 72 11 202 24 290 30 88 7 163 14 167 16 8 5
679 33 1028 42 129 4 332 4 450 1 118 -4 415 -12 660 -18 245 -6 492 -16 550
-21 58 -5 202 -14 320 -20 119 -5 240 -15 270 -20 30 -6 132 -17 225 -25 230
-18 410 -34 530 -46 55 -5 150 -14 210 -19 61 -5 153 -16 205 -24 52 -8 151
-17 220 -21 69 -3 188 -12 265 -20 77 -8 214 -22 305 -30 91 -9 224 -22 296
-30 73 -8 214 -19 315 -25 101 -6 213 -15 248 -20 35 -5 152 -12 260 -15 108
-4 252 -13 321 -22 93 -11 289 -16 765 -20 675 -5 1174 7 1325 32 47 8 115 14
151 14 37 1 104 8 150 16 46 8 122 19 169 24 191 23 287 39 305 48 11 6 47 14
80 18 33 4 71 13 85 20 14 7 57 16 95 20 39 4 82 14 97 21 15 8 35 14 45 14
28 0 287 78 318 96 11 7 36 15 55 19 19 4 44 14 55 21 11 8 26 14 33 14 8 0
28 6 45 14 18 8 61 27 97 42 36 15 72 33 80 39 13 10 64 35 120 59 8 3 51 26
95 51 44 24 90 49 103 54 12 6 22 15 22 21 0 13 -35 13 -58 0 -23 -13 -128
-49 -176 -61 -21 -5 -48 -15 -60 -21 -32 -17 -236 -68 -274 -68 -18 0 -49 -7
-69 -15 -20 -9 -69 -20 -107 -25 -39 -6 -91 -17 -116 -25 -25 -8 -131 -24
-237 -35 -105 -11 -204 -25 -220 -30 -15 -5 -98 -14 -183 -20 -85 -6 -195 -15
-245 -21 -123 -15 -1558 -15 -1730 0 -71 6 -220 16 -330 21 -110 6 -243 15
-295 21 -52 6 -178 17 -280 24 -600 45 -881 70 -960 85 -30 6 -120 15 -200 20
-203 13 -676 58 -790 75 -52 8 -180 19 -284 25 -105 6 -193 13 -197 15 -3 3
-107 12 -230 20 -123 9 -276 22 -339 30 -63 7 -182 17 -265 20 -82 3 -233 13
-335 21 -218 18 -1386 27 -1733 14z"/>
<path d="M230 210 c-8 -5 -12 -11 -10 -14 8 -7 60 6 60 15 0 12 -31 11 -50 -1z"/>
</g>
</svg>
